<svg id="Слой_1" data-name="Слой 1" xmlns="http://www.w3.org/2000/svg" xmlns:xlink="http://www.w3.org/1999/xlink" viewBox="0 0 1034.65 777.16"><defs><style>.cls-1{fill:url(#Безымянный_градиент_13);}.cls-2{fill:none;}.cls-3{fill:url(#Безымянный_градиент_21);}.cls-4{fill:url(#Безымянный_градиент_13-2);}.cls-5{fill:url(#Безымянный_градиент_13-3);}.cls-6{fill:url(#Безымянный_градиент_21-2);}.cls-7{fill:url(#Безымянный_градиент_13-4);}.cls-8{fill:url(#Безымянный_градиент_21-3);}.cls-9{fill:url(#Безымянный_градиент_13-5);}.cls-10{fill:url(#Безымянный_градиент_21-4);}.cls-11{fill:url(#Безымянный_градиент_13-6);}.cls-12{fill:url(#Безымянный_градиент_13-7);}.cls-13{fill:url(#Безымянный_градиент_21-5);}.cls-14{fill:url(#Безымянный_градиент_13-8);}.cls-15{fill:url(#Безымянный_градиент_13-9);}.cls-16{fill:url(#Безымянный_градиент_21-6);}.cls-17{fill:url(#Безымянный_градиент_13-10);}.cls-18{fill:url(#Безымянный_градиент_21-7);}.cls-19{fill:url(#Безымянный_градиент_13-11);}.cls-20{fill:url(#Безымянный_градиент_13-12);}.cls-21{fill:url(#Безымянный_градиент_21-8);}.cls-22{fill:url(#Безымянный_градиент_13-13);}.cls-23{fill:url(#Безымянный_градиент_13-14);}.cls-24{fill:url(#Безымянный_градиент_13-15);}.cls-25{fill:url(#Безымянный_градиент_21-9);}.cls-26{fill:url(#Безымянный_градиент_13-16);}.cls-27{fill:url(#Безымянный_градиент_13-17);}.cls-28{fill:url(#Безымянный_градиент_21-10);}.cls-29{fill:url(#Безымянный_градиент_21-11);}.cls-30{fill:url(#Безымянный_градиент_13-18);}.cls-31{fill:url(#Безымянный_градиент_13-19);}.cls-32{fill:url(#Безымянный_градиент_13-20);}.cls-33{fill:url(#Безымянный_градиент_13-21);}.cls-34{fill:url(#Безымянный_градиент_13-22);}.cls-35{fill:url(#Безымянный_градиент_13-23);}</style><linearGradient id="Безымянный_градиент_13" x1="152.5" y1="312.37" x2="266.01" y2="312.37" gradientUnits="userSpaceOnUse"><stop offset="0" stop-color="#f9b6d7"/><stop offset="0.22" stop-color="#f8b3d7"/><stop offset="0.38" stop-color="#f3a9d6"/><stop offset="0.53" stop-color="#eb99d5"/><stop offset="0.67" stop-color="#e082d3"/><stop offset="0.8" stop-color="#d164d1"/><stop offset="0.92" stop-color="#bf40ce"/><stop offset="1" stop-color="#b225cc"/></linearGradient><linearGradient id="Безымянный_градиент_21" y1="441.12" x2="160.53" y2="441.12" gradientUnits="userSpaceOnUse"><stop offset="0" stop-color="#f9b6d7"/><stop offset="0.44" stop-color="#de86d5"/><stop offset="0.8" stop-color="#ca64d4"/><stop offset="1" stop-color="#c357d3"/></linearGradient><linearGradient id="Безымянный_градиент_13-2" x1="68.66" y1="441.12" x2="90.35" y2="441.12" gradientTransform="translate(103.48 -6.47) rotate(13.28)" xlink:href="#Безымянный_градиент_13"/><linearGradient id="Безымянный_градиент_13-3" x1="152.5" y1="568.71" x2="266.01" y2="568.71" xlink:href="#Безымянный_градиент_13"/><linearGradient id="Безымянный_градиент_21-2" x1="256.22" y1="185.46" x2="416.74" y2="185.46" xlink:href="#Безымянный_градиент_21"/><linearGradient id="Безымянный_градиент_13-4" x1="324.88" y1="185.46" x2="346.57" y2="185.46" gradientTransform="translate(51.59 -72.17) rotate(13.28)" xlink:href="#Безымянный_градиент_13"/><linearGradient id="Безымянный_градиент_21-3" x1="20.57" y1="185.46" x2="139.95" y2="185.46" xlink:href="#Безымянный_градиент_21"/><linearGradient id="Безымянный_градиент_13-5" x1="69.99" y1="185.46" x2="91.69" y2="185.46" xlink:href="#Безымянный_градиент_13"/><linearGradient id="Безымянный_градиент_21-4" x1="20.57" y1="696.78" x2="139.95" y2="696.78" xlink:href="#Безымянный_градиент_21"/><linearGradient id="Безымянный_градиент_13-6" x1="69.99" y1="696.78" x2="91.69" y2="696.78" xlink:href="#Безымянный_градиент_13"/><linearGradient id="Безымянный_градиент_13-7" x1="408.69" y1="568.71" x2="522.21" y2="568.71" xlink:href="#Безымянный_градиент_13"/><linearGradient id="Безымянный_градиент_21-5" x1="265.66" y1="441.12" x2="407.3" y2="441.12" xlink:href="#Безымянный_градиент_21"/><linearGradient id="Безымянный_градиент_13-8" x1="256.22" y1="696.78" x2="416.74" y2="696.78" xlink:href="#Безымянный_градиент_13"/><linearGradient id="Безымянный_градиент_13-9" x1="324.88" y1="696.78" x2="346.57" y2="696.78" gradientTransform="translate(169.07 -58.49) rotate(13.28)" xlink:href="#Безымянный_градиент_13"/><linearGradient id="Безымянный_градиент_21-6" x1="533.01" y1="696.78" x2="652.39" y2="696.78" xlink:href="#Безымянный_градиент_21"/><linearGradient id="Безымянный_градиент_13-10" x1="582.43" y1="696.78" x2="604.12" y2="696.78" xlink:href="#Безымянный_градиент_13"/><linearGradient id="Безымянный_градиент_21-7" x1="512.44" y1="441.12" x2="672.96" y2="441.12" xlink:href="#Безымянный_градиент_21"/><linearGradient id="Безымянный_градиент_13-11" x1="581.09" y1="441.12" x2="602.79" y2="441.12" gradientTransform="translate(117.18 -124.2) rotate(13.28)" xlink:href="#Безымянный_градиент_13"/><linearGradient id="Безымянный_градиент_13-12" x1="408.69" y1="312.37" x2="522.21" y2="312.37" xlink:href="#Безымянный_градиент_13"/><linearGradient id="Безымянный_градиент_21-8" x1="533.01" y1="185.46" x2="652.39" y2="185.46" xlink:href="#Безымянный_градиент_21"/><linearGradient id="Безымянный_градиент_13-13" x1="582.43" y1="185.46" x2="604.12" y2="185.46" xlink:href="#Безымянный_градиент_13"/><linearGradient id="Безымянный_градиент_13-14" x1="664.94" y1="312.24" x2="778.45" y2="312.24" xlink:href="#Безымянный_градиент_13"/><linearGradient id="Безымянный_градиент_13-15" x1="664.94" y1="568.58" x2="778.45" y2="568.58" xlink:href="#Безымянный_градиент_13"/><linearGradient id="Безымянный_градиент_21-9" x1="768.65" y1="185.33" x2="929.18" y2="185.33" xlink:href="#Безымянный_градиент_21"/><linearGradient id="Безымянный_градиент_13-16" x1="837.31" y1="185.33" x2="859" y2="185.33" gradientTransform="translate(65.27 -189.91) rotate(13.28)" xlink:href="#Безымянный_градиент_13"/><linearGradient id="Безымянный_градиент_13-17" x1="921.13" y1="568.58" x2="1034.65" y2="568.58" xlink:href="#Безымянный_градиент_13"/><linearGradient id="Безымянный_градиент_21-10" x1="778.1" y1="440.99" x2="919.74" y2="440.99" xlink:href="#Безымянный_градиент_21"/><linearGradient id="Безымянный_градиент_21-11" x1="768.65" y1="696.64" x2="929.18" y2="696.64" xlink:href="#Безымянный_градиент_21"/><linearGradient id="Безымянный_градиент_13-18" x1="837.31" y1="696.64" x2="859" y2="696.64" gradientTransform="translate(182.75 -176.23) rotate(13.28)" xlink:href="#Безымянный_градиент_13"/><linearGradient id="Безымянный_градиент_13-19" x1="921.13" y1="312.24" x2="1034.65" y2="312.24" xlink:href="#Безымянный_градиент_13"/><linearGradient id="Безымянный_градиент_13-20" x1="152.5" y1="57.89" x2="266.01" y2="57.89" xlink:href="#Безымянный_градиент_13"/><linearGradient id="Безымянный_градиент_13-21" x1="408.69" y1="57.89" x2="522.21" y2="57.89" xlink:href="#Безымянный_градиент_13"/><linearGradient id="Безымянный_градиент_13-22" x1="664.94" y1="57.76" x2="778.45" y2="57.76" xlink:href="#Безымянный_градиент_13"/><linearGradient id="Безымянный_градиент_13-23" x1="921.13" y1="57.76" x2="1034.65" y2="57.76" xlink:href="#Безымянный_градиент_13"/></defs><path class="cls-1" d="M221.34,299.91c8.93-13.75-1.15-39.75-12.08-45.3-10.93,5.55-21,31.55-12.09,45.3-13.89-8.24-39.2,1.69-44.67,12.46,5.47,10.76,30.78,20.69,44.67,12.45-8.93,13.75,1.16,39.75,12.09,45.3,10.93-5.55,21-31.55,12.08-45.3,13.9,8.24,39.21-1.69,44.67-12.45C260.55,301.6,235.24,291.67,221.34,299.91Zm-12.08,23.3a10.85,10.85,0,1,1,10.84-10.84A10.84,10.84,0,0,1,209.26,323.21Z"/><path class="cls-2" d="M92.34,428.54c8.93-13.76-1.16-39.76-12.09-45.31-10.92,5.55-21,31.55-12.08,45.31C54.27,420.29,29,430.22,23.5,441c5.46,10.76,30.77,20.7,44.67,12.45-8.93,13.75,1.16,39.76,12.08,45.3,10.93-5.54,21-31.55,12.09-45.3,13.9,8.25,39.2-1.69,44.67-12.45C131.54,430.22,106.24,420.29,92.34,428.54ZM79.5,452a10.85,10.85,0,1,1,10.85-10.85A10.84,10.84,0,0,1,79.5,452Z"/><path class="cls-3" d="M80.25,360.73l-.43,1.63C72.3,392,38.69,434.35,0,441l0,.26c30,5,67.51,40.12,80.27,80.24h0c8.21-31,35.56-66.56,80.24-80.27l0-.26C132.77,435.76,96.37,407.4,80.25,360.73Zm12.09,92.71c8.93,13.75-1.16,39.76-12.09,45.3-10.92-5.54-21-31.55-12.08-45.3C54.27,461.69,29,451.75,23.5,441c5.46-10.77,30.77-20.7,44.67-12.45-8.93-13.76,1.16-39.76,12.08-45.31,10.93,5.55,21,31.55,12.09,45.31,13.9-8.25,39.2,1.68,44.67,12.45C131.54,451.75,106.24,461.69,92.34,453.44Z"/><circle class="cls-4" cx="79.5" cy="441.12" r="10.85" transform="translate(-99.22 30.07) rotate(-13.28)"/><path class="cls-5" d="M221.34,556.26c8.93-13.75-1.15-39.75-12.08-45.3-10.93,5.55-21,31.55-12.09,45.3C183.28,548,158,558,152.5,568.71c5.47,10.77,30.78,20.7,44.67,12.46-8.93,13.75,1.16,39.75,12.09,45.3,10.93-5.55,21-31.55,12.08-45.3,13.9,8.24,39.21-1.69,44.67-12.46C260.55,558,235.24,548,221.34,556.26Zm-12.08,23.3a10.85,10.85,0,1,1,10.84-10.85A10.85,10.85,0,0,1,209.26,579.56Z"/><path class="cls-2" d="M348.56,172.88c8.92-13.75-1.16-39.75-12.09-45.3-10.93,5.55-21,31.55-12.08,45.3-13.9-8.24-39.21,1.69-44.68,12.45,5.47,10.77,30.78,20.7,44.68,12.46-8.93,13.75,1.15,39.75,12.08,45.3,10.93-5.55,21-31.55,12.09-45.3,13.89,8.24,39.2-1.69,44.67-12.46C387.76,174.57,362.45,164.64,348.56,172.88Zm-12.84,23.43a10.85,10.85,0,1,1,10.85-10.85A10.84,10.84,0,0,1,335.72,196.31Z"/><path class="cls-6" d="M336.47,105.08,336,106.7c-7.51,29.66-41.12,72-79.79,78.63l0,.27c30,5,67.51,40.11,80.27,80.23v0c8.21-31,35.56-66.56,80.24-80.27v-.27C389,180.11,352.59,151.75,336.47,105.08Zm12.09,92.71c8.92,13.75-1.16,39.75-12.09,45.3-10.93-5.55-21-31.55-12.08-45.3-13.9,8.24-39.21-1.69-44.68-12.46,5.47-10.76,30.78-20.69,44.68-12.45-8.93-13.75,1.15-39.75,12.08-45.3,10.93,5.55,21,31.55,12.09,45.3,13.89-8.24,39.2,1.69,44.67,12.45C387.76,196.1,362.45,206,348.56,197.79Z"/><circle class="cls-7" cx="335.72" cy="185.46" r="10.85" transform="translate(-33.63 82.09) rotate(-13.28)"/><path class="cls-2" d="M114.68,162a30.49,30.49,0,0,0-12.47,2.06,32.91,32.91,0,0,0,2.12-12.48c-.8-15.1-11.07-21.42-23.46-21.42s-22.22,6.55-23.45,21.42a30.49,30.49,0,0,0,2.06,12.47A30.58,30.58,0,0,0,47,162c-14.87,1.23-21.42,11.08-21.42,23.46S31.9,208.1,47,208.91a33,33,0,0,0,12.46-2.12,30.73,30.73,0,0,0-2.06,12.48c1.23,14.87,11.08,21.43,23.46,21.43s22.65-6.33,23.46-21.43a33.21,33.21,0,0,0-2.12-12.46,33.3,33.3,0,0,0,12.48,2.12c15.1-.81,21.42-11.08,21.42-23.46S129.55,163.24,114.68,162Zm-33.84,34.3a10.85,10.85,0,1,1,10.85-10.85A10.85,10.85,0,0,1,80.84,196.31Z"/><path class="cls-8" d="M80.26,125.78A59.69,59.69,0,1,0,140,185.46,59.69,59.69,0,0,0,80.26,125.78Zm34.42,83.15a33.3,33.3,0,0,1-12.48-2.12,33.21,33.21,0,0,1,2.12,12.46c-.81,15.1-11.08,21.43-23.46,21.43s-22.23-6.56-23.46-21.43a30.73,30.73,0,0,1,2.06-12.48A33,33,0,0,1,47,208.91c-15.1-.81-21.42-11.08-21.42-23.46S32.13,163.22,47,162a30.58,30.58,0,0,1,12.48,2.07,30.49,30.49,0,0,1-2.06-12.47c1.23-14.87,11.07-21.42,23.45-21.42s22.66,6.32,23.46,21.42a32.91,32.91,0,0,1-2.12,12.48A30.49,30.49,0,0,1,114.68,162c14.87,1.23,21.42,11.07,21.42,23.46S129.78,208.12,114.68,208.93Z"/><circle class="cls-9" cx="80.84" cy="185.46" r="10.85"/><path class="cls-2" d="M114.68,673.32a30.49,30.49,0,0,0-12.47,2.06,32.88,32.88,0,0,0,2.12-12.48c-.8-15.1-11.07-21.42-23.46-21.42S58.65,648,57.42,662.9a30.49,30.49,0,0,0,2.06,12.47A30.58,30.58,0,0,0,47,673.3c-14.87,1.23-21.42,11.08-21.42,23.46S31.9,719.41,47,720.22a33.15,33.15,0,0,0,12.46-2.11,30.65,30.65,0,0,0-2.06,12.47C58.63,745.45,68.48,752,80.86,752s22.65-6.33,23.46-21.43a33.21,33.21,0,0,0-2.12-12.46,33.3,33.3,0,0,0,12.48,2.12c15.1-.81,21.42-11.08,21.42-23.46S129.55,674.55,114.68,673.32Zm-33.84,34.3a10.85,10.85,0,1,1,10.85-10.84A10.84,10.84,0,0,1,80.84,707.62Z"/><path class="cls-10" d="M80.26,637.09A59.69,59.69,0,1,0,140,696.78,59.69,59.69,0,0,0,80.26,637.09Zm34.42,83.15a33.3,33.3,0,0,1-12.48-2.12,33.21,33.21,0,0,1,2.12,12.46C103.51,745.68,93.24,752,80.86,752s-22.23-6.56-23.46-21.43a30.65,30.65,0,0,1,2.06-12.47A33.15,33.15,0,0,1,47,720.22c-15.1-.81-21.42-11.08-21.42-23.46S32.13,674.53,47,673.3a30.58,30.58,0,0,1,12.48,2.07,30.49,30.49,0,0,1-2.06-12.47c1.23-14.87,11.07-21.42,23.45-21.42s22.66,6.32,23.46,21.42a32.88,32.88,0,0,1-2.12,12.48,30.49,30.49,0,0,1,12.47-2.06c14.87,1.23,21.42,11.07,21.42,23.46S129.78,719.43,114.68,720.24Z"/><circle class="cls-11" cx="80.84" cy="696.78" r="10.85"/><path class="cls-12" d="M477.53,556.26c8.93-13.75-1.15-39.75-12.08-45.3-10.93,5.55-21,31.55-12.08,45.3-13.9-8.24-39.21,1.69-44.68,12.45,5.47,10.77,30.78,20.7,44.68,12.46-8.93,13.75,1.15,39.75,12.08,45.3,10.93-5.55,21-31.55,12.08-45.3,13.9,8.24,39.21-1.69,44.68-12.46C516.74,558,491.43,548,477.53,556.26Zm-12.08,23.3a10.85,10.85,0,1,1,10.85-10.85A10.84,10.84,0,0,1,465.45,579.56Z"/><path class="cls-13" d="M356.54,361l-1,7.25Q372,368.24,372,375a17.8,17.8,0,0,1-1,5.58,40.5,40.5,0,0,1-2.18,5.33l-36,56.27L310.13,385c-.64-1.45-1.17-2.66-1.57-3.63a7.58,7.58,0,0,1-.6-2.91q0-10.19,16.92-10.19l1-7.25h-59l-1.21,7.25q12.81,0,20.79,20.34l24.6,61.5-19.9-.43a4.41,4.41,0,0,1-1.52-.4c-.66-.32-.89-.38-1.35-1.92-.63-2.11,3.33-11.18,5.36-15.59l-6.69-.5-17.14,43.2,2.66.87c3.07-6.67,7.19-11.36,14.77-12.42l25,.18-5.7,39.79Q304.58,514,282.82,514l-.72,7.25h66.23l.72-7.25q-20.31,0-20.3-9c0-.32,0-.52.12-.61s.12-.27.12-.6l5.82-40.6,14.21.11c2.72.27,4.14.9,4.81,2.87a8.61,8.61,0,0,1-.38,6.58l4.58,1.12,12.29-32.59-4.59-.61c-2.42,6.12-4.47,10-12.54,10.29l-14.38-.31,48.67-73.25q7.26-9.19,18.62-9.2l1.2-7.25Z"/><path class="cls-2" d="M348.56,684.19c8.92-13.75-1.16-39.75-12.09-45.3-10.93,5.55-21,31.55-12.08,45.3-13.9-8.24-39.21,1.69-44.68,12.45,5.47,10.77,30.78,20.7,44.68,12.46-8.93,13.75,1.15,39.75,12.08,45.3,10.93-5.55,21-31.55,12.09-45.3,13.89,8.24,39.2-1.69,44.67-12.46C387.76,685.88,362.45,676,348.56,684.19Zm-12.84,23.43a10.85,10.85,0,1,1,10.85-10.84A10.84,10.84,0,0,1,335.72,707.62Z"/><path class="cls-14" d="M336.47,616.39,336,618c-7.51,29.66-41.12,72-79.79,78.63l0,.27c30,5,67.51,40.11,80.27,80.23v0c8.21-31,35.56-66.56,80.24-80.27v-.26C389,691.42,352.59,663.06,336.47,616.39Zm12.09,92.71c8.92,13.75-1.16,39.75-12.09,45.3-10.93-5.55-21-31.55-12.08-45.3-13.9,8.24-39.21-1.69-44.68-12.46,5.47-10.76,30.78-20.69,44.68-12.45-8.93-13.75,1.15-39.75,12.08-45.3,10.93,5.55,21,31.55,12.09,45.3,13.89-8.24,39.2,1.69,44.67,12.45C387.76,707.41,362.45,717.34,348.56,709.1Z"/><circle class="cls-15" cx="335.72" cy="696.78" r="10.85" transform="translate(-151.11 95.77) rotate(-13.28)"/><path class="cls-2" d="M627.12,673.32a30.49,30.49,0,0,0-12.47,2.06,33.07,33.07,0,0,0,2.12-12.48c-.81-15.1-11.08-21.42-23.46-21.42S571.08,648,569.85,662.9a30.65,30.65,0,0,0,2.06,12.47,30.51,30.51,0,0,0-12.47-2.07C544.57,674.53,538,684.38,538,696.76s6.33,22.65,21.43,23.46a33.19,33.19,0,0,0,12.46-2.11,30.49,30.49,0,0,0-2.06,12.47c1.23,14.87,11.07,21.43,23.45,21.43s22.66-6.33,23.46-21.43a33,33,0,0,0-2.11-12.46,33.27,33.27,0,0,0,12.48,2.12c15.1-.81,21.42-11.08,21.42-23.46S642,674.55,627.12,673.32Zm-33.84,34.3a10.85,10.85,0,1,1,10.84-10.84A10.84,10.84,0,0,1,593.28,707.62Z"/><path class="cls-16" d="M592.7,637.09a59.69,59.69,0,1,0,59.69,59.69A59.68,59.68,0,0,0,592.7,637.09Zm34.42,83.15a33.27,33.27,0,0,1-12.48-2.12,33,33,0,0,1,2.11,12.46C616,745.68,605.68,752,593.29,752s-22.22-6.56-23.45-21.43a30.49,30.49,0,0,1,2.06-12.47,33.19,33.19,0,0,1-12.46,2.11c-15.1-.81-21.43-11.08-21.43-23.46s6.56-22.23,21.43-23.46a30.51,30.51,0,0,1,12.47,2.07,30.65,30.65,0,0,1-2.06-12.47c1.23-14.87,11.08-21.42,23.46-21.42S616,647.8,616.77,662.9a33.07,33.07,0,0,1-2.12,12.48,30.49,30.49,0,0,1,12.47-2.06c14.87,1.23,21.42,11.07,21.42,23.46S642.22,719.43,627.12,720.24Z"/><circle class="cls-17" cx="593.28" cy="696.78" r="10.85"/><path class="cls-2" d="M604.77,428.54c8.93-13.76-1.15-39.76-12.08-45.31-10.93,5.55-21,31.55-12.08,45.31-13.9-8.25-39.21,1.68-44.68,12.45,5.47,10.76,30.78,20.7,44.68,12.45-8.93,13.75,1.15,39.76,12.08,45.3,10.93-5.54,21-31.55,12.08-45.3,13.9,8.25,39.21-1.69,44.68-12.45C644,430.22,618.67,420.29,604.77,428.54ZM591.94,452a10.85,10.85,0,1,1,10.85-10.85A10.85,10.85,0,0,1,591.94,452Z"/><path class="cls-18" d="M592.69,360.73l-.44,1.63c-7.51,29.65-41.13,72-79.8,78.63v.26c30,5,67.51,40.12,80.27,80.24h0c8.21-31,35.56-66.56,80.23-80.27l0-.26C645.21,435.76,608.81,407.4,592.69,360.73Zm12.08,92.71c8.93,13.75-1.15,39.76-12.08,45.3-10.93-5.54-21-31.55-12.08-45.3-13.9,8.25-39.21-1.69-44.68-12.45,5.47-10.77,30.78-20.7,44.68-12.45-8.93-13.76,1.15-39.76,12.08-45.31,10.93,5.55,21,31.55,12.08,45.31,13.9-8.25,39.21,1.68,44.68,12.45C644,451.75,618.67,461.69,604.77,453.44Z"/><circle class="cls-19" cx="591.94" cy="441.12" r="10.85" transform="translate(-85.51 147.8) rotate(-13.28)"/><path class="cls-20" d="M477.53,299.91c8.93-13.75-1.15-39.75-12.08-45.3-10.93,5.55-21,31.55-12.08,45.3-13.9-8.24-39.21,1.69-44.68,12.46,5.47,10.76,30.78,20.69,44.68,12.45-8.93,13.75,1.15,39.75,12.08,45.3,10.93-5.55,21-31.55,12.08-45.3,13.9,8.24,39.21-1.69,44.68-12.45C516.74,301.6,491.43,291.67,477.53,299.91Zm-12.08,23.3a10.85,10.85,0,1,1,10.85-10.84A10.84,10.84,0,0,1,465.45,323.21Z"/><path class="cls-2" d="M627.12,162a30.49,30.49,0,0,0-12.47,2.06,33.11,33.11,0,0,0,2.12-12.48c-.81-15.1-11.08-21.42-23.46-21.42s-22.23,6.55-23.46,21.42a30.65,30.65,0,0,0,2.06,12.47A30.51,30.51,0,0,0,559.44,162C544.57,163.22,538,173.07,538,185.45s6.33,22.65,21.43,23.46a33,33,0,0,0,12.46-2.12,30.56,30.56,0,0,0-2.06,12.48c1.23,14.87,11.07,21.43,23.45,21.43s22.66-6.33,23.46-21.43a33,33,0,0,0-2.11-12.46,33.27,33.27,0,0,0,12.48,2.12c15.1-.81,21.42-11.08,21.42-23.46S642,163.24,627.12,162Zm-33.84,34.3a10.85,10.85,0,1,1,10.84-10.85A10.85,10.85,0,0,1,593.28,196.31Z"/><path class="cls-21" d="M592.7,125.78a59.69,59.69,0,1,0,59.69,59.68A59.68,59.68,0,0,0,592.7,125.78Zm34.42,83.15a33.27,33.27,0,0,1-12.48-2.12,33,33,0,0,1,2.11,12.46c-.8,15.1-11.07,21.43-23.46,21.43s-22.22-6.56-23.45-21.43a30.56,30.56,0,0,1,2.06-12.48,33,33,0,0,1-12.46,2.12c-15.1-.81-21.43-11.08-21.43-23.46s6.56-22.23,21.43-23.46a30.51,30.51,0,0,1,12.47,2.07,30.65,30.65,0,0,1-2.06-12.47c1.23-14.87,11.08-21.42,23.46-21.42s22.65,6.32,23.46,21.42a33.11,33.11,0,0,1-2.12,12.48A30.49,30.49,0,0,1,627.12,162c14.87,1.23,21.42,11.07,21.42,23.46S642.22,208.12,627.12,208.93Z"/><circle class="cls-22" cx="593.28" cy="185.46" r="10.85"/><path class="cls-23" d="M733.78,299.78c8.93-13.75-1.16-39.75-12.09-45.3-10.93,5.55-21,31.55-12.08,45.3-13.9-8.24-39.21,1.69-44.67,12.46,5.46,10.76,30.77,20.69,44.67,12.45-8.93,13.75,1.15,39.75,12.08,45.3,10.93-5.55,21-31.55,12.09-45.3,13.89,8.24,39.2-1.69,44.67-12.45C773,301.47,747.67,291.54,733.78,299.78Zm-12.09,23.3a10.85,10.85,0,1,1,10.85-10.84A10.84,10.84,0,0,1,721.69,323.08Z"/><path class="cls-24" d="M733.78,556.13c8.93-13.75-1.16-39.75-12.09-45.3-10.93,5.55-21,31.55-12.08,45.3-13.9-8.24-39.21,1.69-44.67,12.45,5.46,10.77,30.77,20.7,44.67,12.46-8.93,13.75,1.15,39.75,12.08,45.3,10.93-5.55,21-31.55,12.09-45.3,13.89,8.24,39.2-1.69,44.67-12.46C773,557.82,747.67,547.89,733.78,556.13Zm-12.09,23.3a10.85,10.85,0,1,1,10.85-10.85A10.84,10.84,0,0,1,721.69,579.43Z"/><path class="cls-2" d="M861,172.75c8.93-13.75-1.15-39.76-12.08-45.3C838,133,827.9,159,836.83,172.75c-13.9-8.25-39.21,1.69-44.68,12.45,5.47,10.77,30.78,20.7,44.68,12.45C827.9,211.41,838,237.41,848.91,243c10.93-5.55,21-31.55,12.08-45.31,13.9,8.25,39.21-1.68,44.68-12.45C900.2,174.44,874.89,164.5,861,172.75Zm-12.83,23.43A10.85,10.85,0,1,1,859,185.33,10.85,10.85,0,0,1,848.16,196.18Z"/><path class="cls-25" d="M848.91,105l-.44,1.62c-7.51,29.66-41.13,72-79.8,78.63l0,.26c30,5,67.51,40.12,80.28,80.24v0c8.21-31,35.56-66.57,80.23-80.27l0-.27C901.43,180,865,151.62,848.91,105ZM861,197.65c8.93,13.76-1.15,39.76-12.08,45.31-10.93-5.55-21-31.55-12.08-45.31-13.9,8.25-39.21-1.68-44.68-12.45,5.47-10.76,30.78-20.7,44.68-12.45C827.9,159,838,133,848.91,127.45c10.93,5.54,21,31.55,12.08,45.3,13.9-8.25,39.21,1.69,44.68,12.45C900.2,196,874.89,205.9,861,197.65Z"/><circle class="cls-26" cx="848.16" cy="185.33" r="10.85" transform="translate(-19.89 199.83) rotate(-13.28)"/><path class="cls-27" d="M990,556.13c8.93-13.75-1.15-39.75-12.08-45.3-10.93,5.55-21,31.55-12.09,45.3-13.89-8.24-39.2,1.69-44.67,12.45,5.47,10.77,30.78,20.7,44.67,12.46-8.92,13.75,1.16,39.75,12.09,45.3,10.93-5.55,21-31.55,12.08-45.3,13.9,8.24,39.21-1.69,44.68-12.46C1029.18,557.82,1003.87,547.89,990,556.13Zm-12.08,23.3a10.85,10.85,0,1,1,10.84-10.85A10.85,10.85,0,0,1,977.89,579.43Z"/><path class="cls-28" d="M869,360.86l-1,7.25q16.44,0,16.44,6.79a17.82,17.82,0,0,1-1,5.58,40.5,40.5,0,0,1-2.17,5.33l-36,56.27-22.72-57.24c-.65-1.45-1.17-2.66-1.57-3.63a7.58,7.58,0,0,1-.6-2.91q0-10.19,16.92-10.19l1-7.25h-59l-1.2,7.25q12.79,0,20.78,20.34L823.49,450l-19.91-.43a4.1,4.1,0,0,1-1.51-.41c-.67-.31-.9-.37-1.35-1.91-.63-2.11,3.32-11.18,5.35-15.59l-6.69-.5-17.13,43.2,2.66.87c3.07-6.67,7.19-11.36,14.76-12.42l25,.18L819,502.73q-2,11.13-23.69,11.14l-.73,7.25h66.23l.73-7.25q-20.31,0-20.31-9a1,1,0,0,1,.12-.61,1,1,0,0,0,.12-.6l5.82-40.6,14.21.11c2.73.27,4.15.9,4.82,2.87a8.66,8.66,0,0,1-.38,6.58l4.58,1.12,12.29-32.59-4.59-.61c-2.43,6.12-4.47,10-12.54,10.29l-14.38-.32,48.67-73.24a22.67,22.67,0,0,1,18.61-9.2l1.21-7.25Z"/><path class="cls-2" d="M861,684.06c8.93-13.75-1.15-39.75-12.08-45.3-10.93,5.55-21,31.55-12.08,45.3-13.9-8.24-39.21,1.69-44.68,12.45,5.47,10.77,30.78,20.7,44.68,12.46-8.93,13.75,1.15,39.75,12.08,45.3,10.93-5.55,21-31.55,12.08-45.3,13.9,8.24,39.21-1.69,44.68-12.46C900.2,685.75,874.89,675.82,861,684.06Zm-12.83,23.43A10.85,10.85,0,1,1,859,696.64,10.85,10.85,0,0,1,848.16,707.49Z"/><path class="cls-29" d="M848.91,616.26l-.44,1.62c-7.51,29.66-41.13,72-79.8,78.63l0,.27c30,5,67.51,40.11,80.28,80.23v0c8.21-31,35.56-66.56,80.23-80.27l0-.27C901.43,691.29,865,662.93,848.91,616.26ZM861,709c8.93,13.75-1.15,39.75-12.08,45.3-10.93-5.55-21-31.55-12.08-45.3-13.9,8.24-39.21-1.69-44.68-12.46,5.47-10.76,30.78-20.69,44.68-12.45-8.93-13.75,1.15-39.75,12.08-45.3,10.93,5.55,21,31.55,12.08,45.3,13.9-8.24,39.21,1.69,44.68,12.45C900.2,707.28,874.89,717.21,861,709Z"/><circle class="cls-30" cx="848.16" cy="696.64" r="10.85" transform="translate(-137.37 213.5) rotate(-13.28)"/><path class="cls-31" d="M990,299.78c8.93-13.75-1.15-39.75-12.08-45.3C967,260,956.88,286,965.8,299.78c-13.89-8.24-39.2,1.69-44.67,12.46,5.47,10.76,30.78,20.69,44.67,12.45-8.92,13.75,1.16,39.75,12.09,45.3,10.93-5.55,21-31.55,12.08-45.3,13.9,8.24,39.21-1.69,44.68-12.45C1029.18,301.47,1003.87,291.54,990,299.78Zm-12.08,23.3a10.85,10.85,0,1,1,10.84-10.84A10.84,10.84,0,0,1,977.89,323.08Z"/><path class="cls-32" d="M221.34,45.44c8.93-13.76-1.15-39.76-12.08-45.31-10.93,5.55-21,31.55-12.09,45.31-13.89-8.25-39.2,1.68-44.67,12.45,5.47,10.76,30.78,20.7,44.67,12.45-8.93,13.75,1.16,39.75,12.09,45.3,10.93-5.55,21-31.55,12.08-45.3,13.9,8.25,39.21-1.69,44.67-12.45C260.55,47.12,235.24,37.19,221.34,45.44ZM209.26,68.73A10.85,10.85,0,1,1,220.1,57.89,10.84,10.84,0,0,1,209.26,68.73Z"/><path class="cls-33" d="M477.53,45.44c8.93-13.76-1.15-39.76-12.08-45.31-10.93,5.55-21,31.55-12.08,45.31-13.9-8.25-39.21,1.68-44.68,12.45,5.47,10.76,30.78,20.7,44.68,12.45-8.93,13.75,1.15,39.75,12.08,45.3,10.93-5.55,21-31.55,12.08-45.3,13.9,8.25,39.21-1.69,44.68-12.45C516.74,47.12,491.43,37.19,477.53,45.44ZM465.45,68.73A10.85,10.85,0,1,1,476.3,57.89,10.84,10.84,0,0,1,465.45,68.73Z"/><path class="cls-34" d="M733.78,45.3c8.93-13.75-1.16-39.75-12.09-45.3-10.93,5.55-21,31.55-12.08,45.3-13.9-8.24-39.21,1.69-44.67,12.46,5.46,10.76,30.77,20.69,44.67,12.45-8.93,13.75,1.15,39.75,12.08,45.3,10.93-5.55,21-31.55,12.09-45.3,13.89,8.24,39.2-1.69,44.67-12.45C773,47,747.67,37.06,733.78,45.3ZM721.69,68.6a10.85,10.85,0,1,1,10.85-10.84A10.84,10.84,0,0,1,721.69,68.6Z"/><path class="cls-35" d="M990,45.3C998.9,31.55,988.82,5.55,977.89,0c-10.93,5.55-21,31.55-12.09,45.3-13.89-8.24-39.2,1.69-44.67,12.46,5.47,10.76,30.78,20.69,44.67,12.45C956.88,84,967,110,977.89,115.51,988.82,110,998.9,84,990,70.21c13.9,8.24,39.21-1.69,44.68-12.45C1029.18,47,1003.87,37.06,990,45.3ZM977.89,68.6a10.85,10.85,0,1,1,10.84-10.84A10.84,10.84,0,0,1,977.89,68.6Z"/></svg>